# xmcd
#
# Track frame offsets:
#	150
#	15274
#	34857
#	54238
#	76611
#	87644
#	98090
#	118480
#	140944
#	157169
#	176802
#	202830
#	222722
#	237643
#	259011
#	283511
#
# Disc length: 3784 seconds
#
# Revision: 1
# Processed by: cddbd v1.5.2PL0 Copyright (c) Steve Scherf et al.
# Submitted via: audiograbber 1.83.01
#
DISCID=ea0ec610
DTITLE=Mighty Mo Rodgers - Blues Is My Wailin' Wall
DYEAR=2000
DGENRE=Blues
TTITLE0=Blues Is My Wailin' Wall
TTITLE1=Took Away The Drum
TTITLE2=Heaven's Got The Blues
TTITLE3=No Regreds
TTITLE4=Tuskegee Blues
TTITLE5=No Dough
TTITLE6=The Kennedy Song
TTITLE7=(Bring Back) Sweet Soul Music
TTITLE8=Willie B. And Me
TTITLE9=Gone Fishin'
TTITLE10=Shame !
TTITLE11=12 - Track 12
TTITLE12=13 - Track 13
TTITLE13=14 - Track 14
TTITLE14=15 - Track 15
TTITLE15=16 - Track 16
EXTD=
EXTT0=
EXTT1=
EXTT2=
EXTT3=
EXTT4=
EXTT5=
EXTT6=
EXTT7=
EXTT8=
EXTT9=
EXTT10=
EXTT11=
EXTT12=
EXTT13=
EXTT14=
EXTT15=
PLAYORDER=
